# xmcd
#
# Track frame offsets:
#	150
#	17030
#	34122
#	50680
#	73002
#	85540
#	100872
#	113127
#	127147
#	150627
#
# Disc length: 2472 seconds
#
# Revision: 3
# Processed by: cddbd v1.4b41PL3 Copyright (c) Steve Scherf et al.
# Submitted via: CDmax 1.7.6
#
DISCID=7e09a60a
DTITLE=Various Artist - New Country * Volume 3 * Number 11
DYEAR=1900
DGENRE=
TTITLE0=Bill Monroe - Midnight on the Stormy Deep
TTITLE1=Seldom Scene - The Shape I'm In
TTITLE2=Bad Company - Oh Atlanta
TTITLE3=Gary Chapman - One of Two
TTITLE4=Lucy Kaplansky - Love Is the Ride
TTITLE5=High Noon - Call of the Honky-Tonk
TTITLE6=Libbi Bosworth - Don't Call Me Crazy
TTITLE7=The Picketts - Good Good Wife
TTITLE8=Peter Rowan - Bluegrass Boy
TTITLE9=Dave Alvin &The Guilty Men - Long White Cadillac
EXTD=
EXTT0=
EXTT1=
EXTT2=
EXTT3=
EXTT4=
EXTT5=
EXTT6=
EXTT7=
EXTT8=
EXTT9=
PLAYORDER=
